<?xml version="1.0" encoding="UTF-8" standalone="no"?>
<svg
   width="326.803125pt"
   height="193.368438pt"
   viewBox="0 0 326.803125 193.368438"
   version="1.1"
   id="svg78"
   sodipodi:docname="quiz-1st-retake.svg"
   inkscape:version="1.3.2 (091e20ef0f, 2023-11-25)"
   xmlns:inkscape="http://www.inkscape.org/namespaces/inkscape"
   xmlns:sodipodi="http://sodipodi.sourceforge.net/DTD/sodipodi-0.dtd"
   xmlns:xlink="http://www.w3.org/1999/xlink"
   xmlns="http://www.w3.org/2000/svg"
   xmlns:svg="http://www.w3.org/2000/svg"
   xmlns:rdf="http://www.w3.org/1999/02/22-rdf-syntax-ns#"
   xmlns:cc="http://creativecommons.org/ns#"
   xmlns:dc="http://purl.org/dc/elements/1.1/">
  <sodipodi:namedview
     id="namedview78"
     pagecolor="#ffffff"
     bordercolor="#000000"
     borderopacity="0.25"
     inkscape:showpageshadow="2"
     inkscape:pageopacity="0.0"
     inkscape:pagecheckerboard="0"
     inkscape:deskcolor="#d1d1d1"
     inkscape:document-units="pt"
     inkscape:zoom="1.7526041"
     inkscape:cx="204.26747"
     inkscape:cy="112.11888"
     inkscape:window-width="1920"
     inkscape:window-height="1011"
     inkscape:window-x="0"
     inkscape:window-y="32"
     inkscape:window-maximized="1"
     inkscape:current-layer="svg78" />
  <metadata
     id="metadata1">
    <rdf:RDF>
      <cc:Work>
        <dc:type
           rdf:resource="http://purl.org/dc/dcmitype/StillImage" />
        <dc:date>2023-10-04T11:49:52.733188</dc:date>
        <dc:format>image/svg+xml</dc:format>
        <dc:creator>
          <cc:Agent>
            <dc:title>Matplotlib v3.7.2, https://matplotlib.org/</dc:title>
          </cc:Agent>
        </dc:creator>
      </cc:Work>
    </rdf:RDF>
  </metadata>
  <defs
     id="defs1">
    <style
       type="text/css"
       id="style1">*{stroke-linejoin: round; stroke-linecap: butt}</style>
    <defs
       id="defs76">
      <path
         id="DejaVuSans-Oblique-67"
         d="M 3816,3500 3219,434 q -172,-890 -658,-1327 -486,-438 -1308,-438 -303,0 -563,45 -259,45 -484,139 l 107,559 q 212,-137 449,-202 238,-66 507,-66 547,0 898,299 352,298 464,857 l 50,263 Q 2441,288 2122,144 1803,0 1434,0 903,0 598,351 294,703 294,1319 q 0,484 184,948 185,464 519,824 222,237 517,365 295,128 617,128 353,0 615,-164 263,-164 392,-464 l 100,544 z M 2950,2216 q 0,425 -200,656 -200,231 -569,231 -228,0 -434,-91 -206,-90 -353,-253 -238,-268 -371,-632 -132,-364 -132,-752 0,-431 201,-663 202,-231 580,-231 547,0 912,495 366,496 366,1240 z"
         transform="scale(0.015625)" />
    </defs>
  </defs>
  <g
     id="patch_1">
    <path
       d="M 0,193.36844 H 326.80313 V 0 H 0 Z"
       style="fill:#ffffff"
       id="path1" />
  </g>
  <path
     d="M 40.603125,149.59922 H 319.60312 V 10.999219 H 40.603125 Z"
     style="fill:#ffffff"
     id="path2" />
  <path
     d="m 54.553125,184.24922 h 13.95 V 79.615787 h -13.95 z"
     clip-path="url(#pd3b9c5032d)"
     style="fill:#1f77b4"
     id="path3" />
  <path
     d="m 110.35313,184.24922 h 13.94999 V 70.356912 h -13.94999 z"
     clip-path="url(#pd3b9c5032d)"
     style="fill:#1f77b4"
     id="path4" />
  <path
     d="m 166.15312,184.24922 h 13.95 V 40.824189 h -13.95 z"
     clip-path="url(#pd3b9c5032d)"
     style="fill:#1f77b4"
     id="path5" />
  <path
     d="m 221.95312,184.24922 h 13.95 V 63.173069 h -13.95 z"
     clip-path="url(#pd3b9c5032d)"
     style="fill:#1f77b4"
     id="path6" />
  <path
     d="m 277.75312,184.24922 h 13.95 V 91.743447 h -13.95 z"
     clip-path="url(#pd3b9c5032d)"
     style="fill:#1f77b4"
     id="path7" />
  <path
     d="m 68.503125,184.24922 h 13.95 V 35.603504 h -13.95 z"
     clip-path="url(#pd3b9c5032d)"
     style="fill:#ff7f0e"
     id="path8" />
  <path
     d="m 124.30312,184.24922 h 13.95 V 29.465355 h -13.95 z"
     clip-path="url(#pd3b9c5032d)"
     style="fill:#ff7f0e"
     id="path9" />
  <path
     d="m 180.10312,184.24922 h 13.95 V 33.360038 h -13.95 z"
     clip-path="url(#pd3b9c5032d)"
     style="fill:#ff7f0e"
     id="path10" />
  <path
     d="m 235.90312,184.24922 h 13.95 V 31.142333 h -13.95 z"
     clip-path="url(#pd3b9c5032d)"
     style="fill:#ff7f0e"
     id="path11" />
  <path
     d="m 291.70312,184.24922 h 13.95 V 52.839506 h -13.95 z"
     clip-path="url(#pd3b9c5032d)"
     style="fill:#ff7f0e"
     id="path12" />
  <g
     id="xtick_1">
    <g
       id="line2d_1">
      <defs
         id="defs12">
        <path
           id="mc676092115"
           d="M 0,0 V 3.5"
           style="stroke:#000000;stroke-width:0.8" />
      </defs>
      <g
         id="g12">
        <use
           xlink:href="#mc676092115"
           x="68.503128"
           y="149.59921"
           style="stroke:#000000;stroke-width:0.8"
           id="use12" />
      </g>
    </g>
    <g
       id="text_1">
      <!-- Quiz1 -->
      <g
         transform="matrix(0.1,0,0,-0.1,54.203906,164.19766)"
         id="g17">
        <defs
           id="defs13">
          <path
             id="DejaVuSans-51"
             d="m 2522,4238 q -688,0 -1093,-513 -404,-512 -404,-1397 0,-881 404,-1394 405,-512 1093,-512 687,0 1089,512 402,513 402,1394 0,885 -402,1397 -402,513 -1089,513 z M 3406,84 4238,-825 h -763 l -691,747 q -103,-6 -158,-9 -54,-4 -104,-4 -984,0 -1574,658 -589,658 -589,1761 0,1106 589,1764 590,658 1574,658 981,0 1568,-658 588,-658 588,-1764 0,-812 -327,-1391 Q 4025,359 3406,84 Z"
             transform="scale(0.015625)" />
          <path
             id="DejaVuSans-75"
             d="m 544,1381 v 2119 h 575 V 1403 q 0,-497 193,-746 194,-248 582,-248 465,0 735,297 271,297 271,810 v 1984 h 575 V 0 H 2900 V 538 Q 2691,219 2414,64 2138,-91 1772,-91 1169,-91 856,284 544,659 544,1381 Z m 1447,2203 z"
             transform="scale(0.015625)" />
          <path
             id="DejaVuSans-69"
             d="m 603,3500 h 575 V 0 H 603 Z m 0,1363 h 575 V 4134 H 603 Z"
             transform="scale(0.015625)" />
          <path
             id="DejaVuSans-7a"
             d="M 353,3500 H 3084 V 2975 L 922,459 H 3084 V 0 H 275 V 525 L 2438,3041 H 353 Z"
             transform="scale(0.015625)" />
          <path
             id="DejaVuSans-31"
             d="M 794,531 H 1825 V 4091 L 703,3866 v 575 l 1116,225 h 631 V 531 H 3481 V 0 H 794 Z"
             transform="scale(0.015625)" />
        </defs>
        <use
           xlink:href="#DejaVuSans-51"
           id="use13" />
        <use
           xlink:href="#DejaVuSans-75"
           x="78.710938"
           id="use14" />
        <use
           xlink:href="#DejaVuSans-69"
           x="142.08984"
           id="use15" />
        <use
           xlink:href="#DejaVuSans-7a"
           x="169.87305"
           id="use16" />
        <use
           xlink:href="#DejaVuSans-31"
           x="222.36328"
           id="use17" />
      </g>
    </g>
  </g>
  <g
     id="xtick_2">
    <g
       id="line2d_2">
      <g
         id="g18">
        <use
           xlink:href="#mc676092115"
           x="124.30312"
           y="149.59921"
           style="stroke:#000000;stroke-width:0.8"
           id="use18" />
      </g>
    </g>
    <g
       id="text_2">
      <!-- Quiz 2 -->
      <g
         transform="matrix(0.1,0,0,-0.1,108.41484,164.19766)"
         id="g24">
        <defs
           id="defs18">
          <path
             id="DejaVuSans-20"
             transform="scale(0.015625)"
             d="" />
          <path
             id="DejaVuSans-32"
             d="M 1228,531 H 3431 V 0 H 469 v 531 q 359,372 979,998 621,627 780,809 303,340 423,576 121,236 121,464 0,372 -261,606 -261,235 -680,235 -297,0 -627,-103 -329,-103 -704,-313 v 638 q 381,153 712,231 332,78 607,78 725,0 1156,-363 431,-362 431,-968 0,-288 -108,-546 -107,-257 -392,-607 -78,-91 -497,-524 Q 1991,1309 1228,531 Z"
             transform="scale(0.015625)" />
        </defs>
        <use
           xlink:href="#DejaVuSans-51"
           id="use19" />
        <use
           xlink:href="#DejaVuSans-75"
           x="78.710938"
           id="use20" />
        <use
           xlink:href="#DejaVuSans-69"
           x="142.08984"
           id="use21" />
        <use
           xlink:href="#DejaVuSans-7a"
           x="169.87305"
           id="use22" />
        <use
           xlink:href="#DejaVuSans-20"
           x="222.36328"
           id="use23" />
        <use
           xlink:href="#DejaVuSans-32"
           x="254.15039"
           id="use24" />
      </g>
    </g>
  </g>
  <g
     id="xtick_3">
    <g
       id="line2d_3">
      <g
         id="g25">
        <use
           xlink:href="#mc676092115"
           x="180.10312"
           y="149.59921"
           style="stroke:#000000;stroke-width:0.8"
           id="use25" />
      </g>
    </g>
    <g
       id="text_3">
      <!-- Quiz 3 -->
      <g
         transform="matrix(0.1,0,0,-0.1,164.21484,164.19766)"
         id="g31">
        <defs
           id="defs25">
          <path
             id="DejaVuSans-33"
             d="m 2597,2516 q 453,-97 707,-404 255,-306 255,-756 0,-690 -475,-1069 -475,-378 -1350,-378 -293,0 -604,58 -311,58 -642,174 v 609 q 262,-153 574,-231 313,-78 654,-78 593,0 904,234 311,234 311,681 0,413 -289,645 -289,233 -804,233 h -544 v 519 h 569 q 465,0 712,186 247,186 247,536 0,359 -255,551 -254,193 -729,193 -260,0 -557,-57 -297,-56 -653,-174 v 562 q 360,100 674,150 314,50 592,50 719,0 1137,-327 419,-326 419,-882 0,-388 -222,-655 -222,-267 -631,-370 z"
             transform="scale(0.015625)" />
        </defs>
        <use
           xlink:href="#DejaVuSans-51"
           id="use26" />
        <use
           xlink:href="#DejaVuSans-75"
           x="78.710938"
           id="use27" />
        <use
           xlink:href="#DejaVuSans-69"
           x="142.08984"
           id="use28" />
        <use
           xlink:href="#DejaVuSans-7a"
           x="169.87305"
           id="use29" />
        <use
           xlink:href="#DejaVuSans-20"
           x="222.36328"
           id="use30" />
        <use
           xlink:href="#DejaVuSans-33"
           x="254.15039"
           id="use31" />
      </g>
    </g>
  </g>
  <g
     id="xtick_4">
    <g
       id="line2d_4">
      <g
         id="g32">
        <use
           xlink:href="#mc676092115"
           x="235.90312"
           y="149.59921"
           style="stroke:#000000;stroke-width:0.8"
           id="use32" />
      </g>
    </g>
    <g
       id="text_4">
      <!-- Quiz 4 -->
      <g
         transform="matrix(0.1,0,0,-0.1,220.01484,164.19766)"
         id="g38">
        <defs
           id="defs32">
          <path
             id="DejaVuSans-34"
             d="M 2419,4116 825,1625 h 1594 z m -166,550 h 794 V 1625 h 666 V 1100 H 3047 V 0 H 2419 V 1100 H 313 v 609 z"
             transform="scale(0.015625)" />
        </defs>
        <use
           xlink:href="#DejaVuSans-51"
           id="use33" />
        <use
           xlink:href="#DejaVuSans-75"
           x="78.710938"
           id="use34" />
        <use
           xlink:href="#DejaVuSans-69"
           x="142.08984"
           id="use35" />
        <use
           xlink:href="#DejaVuSans-7a"
           x="169.87305"
           id="use36" />
        <use
           xlink:href="#DejaVuSans-20"
           x="222.36328"
           id="use37" />
        <use
           xlink:href="#DejaVuSans-34"
           x="254.15039"
           id="use38" />
      </g>
    </g>
  </g>
  <g
     id="xtick_5">
    <g
       id="line2d_5">
      <g
         id="g39">
        <use
           xlink:href="#mc676092115"
           x="291.70312"
           y="149.59921"
           style="stroke:#000000;stroke-width:0.8"
           id="use39" />
      </g>
    </g>
    <g
       id="text_5">
      <!-- Quiz 5 -->
      <g
         transform="matrix(0.1,0,0,-0.1,275.81484,164.19766)"
         id="g45">
        <defs
           id="defs39">
          <path
             id="DejaVuSans-35"
             d="M 691,4666 H 3169 V 4134 H 1269 V 2991 q 137,47 274,70 138,23 276,23 781,0 1237,-428 457,-428 457,-1159 Q 3513,744 3044,326 2575,-91 1722,-91 1428,-91 1123,-41 819,9 494,109 v 635 q 281,-153 581,-228 300,-75 634,-75 541,0 856,284 316,284 316,772 0,487 -316,771 -315,285 -856,285 -253,0 -505,-56 -251,-56 -513,-175 z"
             transform="scale(0.015625)" />
        </defs>
        <use
           xlink:href="#DejaVuSans-51"
           id="use40" />
        <use
           xlink:href="#DejaVuSans-75"
           x="78.710938"
           id="use41" />
        <use
           xlink:href="#DejaVuSans-69"
           x="142.08984"
           id="use42" />
        <use
           xlink:href="#DejaVuSans-7a"
           x="169.87305"
           id="use43" />
        <use
           xlink:href="#DejaVuSans-20"
           x="222.36328"
           id="use44" />
        <use
           xlink:href="#DejaVuSans-35"
           x="254.15039"
           id="use45" />
      </g>
    </g>
  </g>
  <g
     id="ytick_1">
    <g
       id="line2d_6">
      <defs
         id="defs45">
        <path
           id="m7d5029983e"
           d="M 0,0 H -3.5"
           style="stroke:#000000;stroke-width:0.8" />
      </defs>
      <g
         id="g46">
        <use
           xlink:href="#m7d5029983e"
           x="40.603127"
           y="149.59921"
           style="stroke:#000000;stroke-width:0.8"
           id="use46" />
      </g>
    </g>
    <g
       id="text_6">
      <!-- 2 -->
      <g
         transform="matrix(0.1,0,0,-0.1,27.240625,153.39844)"
         id="g47">
        <use
           xlink:href="#DejaVuSans-32"
           id="use47" />
      </g>
    </g>
  </g>
  <g
     id="ytick_2">
    <g
       id="line2d_7">
      <g
         id="g48">
        <use
           xlink:href="#m7d5029983e"
           x="40.603127"
           y="114.94922"
           style="stroke:#000000;stroke-width:0.8"
           id="use48" />
      </g>
    </g>
    <g
       id="text_7">
      <!-- 4 -->
      <g
         transform="matrix(0.1,0,0,-0.1,27.240625,118.74844)"
         id="g49">
        <use
           xlink:href="#DejaVuSans-34"
           id="use49" />
      </g>
    </g>
  </g>
  <g
     id="ytick_3">
    <g
       id="line2d_8">
      <g
         id="g50">
        <use
           xlink:href="#m7d5029983e"
           x="40.603127"
           y="80.299217"
           style="stroke:#000000;stroke-width:0.8"
           id="use50" />
      </g>
    </g>
    <g
       id="text_8">
      <!-- 6 -->
      <g
         transform="matrix(0.1,0,0,-0.1,27.240625,84.098438)"
         id="g51">
        <defs
           id="defs50">
          <path
             id="DejaVuSans-36"
             d="m 2113,2584 q -425,0 -674,-291 -248,-290 -248,-796 0,-503 248,-796 249,-292 674,-292 425,0 673,292 248,293 248,796 0,506 -248,796 -248,291 -673,291 z m 1253,1979 v -575 q -238,112 -480,171 -242,60 -480,60 -625,0 -955,-422 -329,-422 -376,-1275 184,272 462,417 279,145 613,145 703,0 1111,-427 408,-426 408,-1160 0,-719 -425,-1154 -425,-434 -1131,-434 -810,0 -1238,620 -428,621 -428,1799 0,1106 525,1764 525,658 1409,658 238,0 480,-47 242,-47 505,-140 z"
             transform="scale(0.015625)" />
        </defs>
        <use
           xlink:href="#DejaVuSans-36"
           id="use51" />
      </g>
    </g>
  </g>
  <g
     id="ytick_4">
    <g
       id="line2d_9">
      <g
         id="g52">
        <use
           xlink:href="#m7d5029983e"
           x="40.603127"
           y="45.64922"
           style="stroke:#000000;stroke-width:0.8"
           id="use52" />
      </g>
    </g>
    <g
       id="text_9">
      <!-- 8 -->
      <g
         transform="matrix(0.1,0,0,-0.1,27.240625,49.448437)"
         id="g53">
        <defs
           id="defs52">
          <path
             id="DejaVuSans-38"
             d="m 2034,2216 q -450,0 -708,-241 -257,-241 -257,-662 0,-422 257,-663 258,-241 708,-241 450,0 709,242 260,243 260,662 0,421 -258,662 -257,241 -711,241 z m -631,268 q -406,100 -633,378 -226,279 -226,679 0,559 398,884 399,325 1092,325 697,0 1094,-325 397,-325 397,-884 0,-400 -227,-679 -226,-278 -629,-378 456,-106 710,-416 255,-309 255,-755 Q 3634,634 3220,271 2806,-91 2034,-91 1263,-91 848,271 434,634 434,1313 q 0,446 256,755 257,310 713,416 z m -231,997 q 0,-362 226,-565 227,-203 636,-203 407,0 636,203 230,203 230,565 0,363 -230,566 -229,203 -636,203 -409,0 -636,-203 -226,-203 -226,-566 z"
             transform="scale(0.015625)" />
        </defs>
        <use
           xlink:href="#DejaVuSans-38"
           id="use53" />
      </g>
    </g>
  </g>
  <g
     id="ytick_5">
    <g
       id="line2d_10">
      <g
         id="g54">
        <use
           xlink:href="#m7d5029983e"
           x="40.603127"
           y="10.999219"
           style="stroke:#000000;stroke-width:0.8"
           id="use54" />
      </g>
    </g>
    <g
       id="text_10">
      <!-- 10 -->
      <g
         transform="matrix(0.1,0,0,-0.1,20.878125,14.798438)"
         id="g56">
        <defs
           id="defs54">
          <path
             id="DejaVuSans-30"
             d="m 2034,4250 q -487,0 -733,-480 -245,-479 -245,-1442 0,-959 245,-1439 246,-480 733,-480 491,0 736,480 246,480 246,1439 0,963 -246,1442 -245,480 -736,480 z m 0,500 q 785,0 1199,-621 414,-620 414,-1801 0,-1178 -414,-1799 -414,-620 -1199,-620 -784,0 -1198,620 -414,621 -414,1799 0,1181 414,1801 414,621 1198,621 z"
             transform="scale(0.015625)" />
        </defs>
        <use
           xlink:href="#DejaVuSans-31"
           id="use55" />
        <use
           xlink:href="#DejaVuSans-30"
           x="63.623047"
           id="use56" />
      </g>
    </g>
  </g>
  <g
     id="text_11">
    <!-- Score -->
    <g
       transform="matrix(0,-0.1,-0.1,0,14.798438,94.301563)"
       id="g61">
      <defs
         id="defs56">
        <path
           id="DejaVuSans-53"
           d="m 3425,4513 v -616 q -359,172 -678,256 -319,85 -616,85 -515,0 -795,-200 -280,-200 -280,-569 0,-310 186,-468 186,-157 705,-254 l 381,-78 q 706,-135 1042,-474 336,-339 336,-907 0,-679 -455,-1029 -454,-350 -1332,-350 -331,0 -705,75 -373,75 -773,222 v 650 q 384,-215 753,-325 369,-109 725,-109 540,0 834,212 294,213 294,607 0,343 -211,537 -211,194 -692,291 l -385,75 q -706,140 -1022,440 -315,300 -315,835 0,619 436,975 436,356 1201,356 329,0 669,-60 341,-59 697,-177 z"
           transform="scale(0.015625)" />
        <path
           id="DejaVuSans-63"
           d="m 3122,3366 v -538 q -244,135 -489,202 -245,67 -495,67 -560,0 -870,-355 -309,-354 -309,-995 0,-641 309,-996 310,-354 870,-354 250,0 495,67 245,67 489,202 V 134 Q 2881,22 2623,-34 2366,-91 2075,-91 1284,-91 818,406 353,903 353,1747 q 0,856 470,1346 471,491 1290,491 265,0 518,-55 253,-54 491,-163 z"
           transform="scale(0.015625)" />
        <path
           id="DejaVuSans-6f"
           d="m 1959,3097 q -462,0 -731,-361 -269,-361 -269,-989 0,-628 267,-989 268,-361 733,-361 460,0 728,362 269,363 269,988 0,622 -269,986 -268,364 -728,364 z m 0,487 q 750,0 1178,-488 429,-487 429,-1349 Q 3566,888 3137,398 2709,-91 1959,-91 1206,-91 779,398 353,888 353,1747 q 0,862 426,1349 427,488 1180,488 z"
           transform="scale(0.015625)" />
        <path
           id="DejaVuSans-72"
           d="m 2631,2963 q -97,56 -211,82 -114,27 -251,27 -488,0 -749,-317 -261,-317 -261,-911 V 0 H 581 v 3500 h 578 v -544 q 182,319 472,473 291,155 707,155 59,0 131,-8 72,-7 159,-23 z"
           transform="scale(0.015625)" />
        <path
           id="DejaVuSans-65"
           d="M 3597,1894 V 1613 H 953 q 38,-594 358,-905 320,-311 892,-311 331,0 642,81 311,81 618,244 V 178 Q 3153,47 2828,-22 2503,-91 2169,-91 1331,-91 842,396 353,884 353,1716 q 0,859 464,1363 464,505 1252,505 706,0 1117,-455 411,-454 411,-1235 z m -575,169 q -6,471 -264,752 -258,282 -683,282 -481,0 -770,-272 -289,-272 -333,-766 z"
           transform="scale(0.015625)" />
      </defs>
      <use
         xlink:href="#DejaVuSans-53"
         id="use57" />
      <use
         xlink:href="#DejaVuSans-63"
         x="63.476562"
         id="use58" />
      <use
         xlink:href="#DejaVuSans-6f"
         x="118.45703"
         id="use59" />
      <use
         xlink:href="#DejaVuSans-72"
         x="179.63867"
         id="use60" />
      <use
         xlink:href="#DejaVuSans-65"
         x="218.50195"
         id="use61" />
    </g>
  </g>
  <path
     d="M 61.528125,92.106724 V 67.12485"
     clip-path="url(#pd3b9c5032d)"
     style="fill:none;stroke:#000000;stroke-width:1.5"
     id="path61" />
  <path
     d="M 117.32813,79.537007 V 61.176817"
     clip-path="url(#pd3b9c5032d)"
     style="fill:none;stroke:#000000;stroke-width:1.5"
     id="path62" />
  <path
     d="M 173.12812,47.784961 V 33.863417"
     clip-path="url(#pd3b9c5032d)"
     style="fill:none;stroke:#000000;stroke-width:1.5"
     id="path63" />
  <path
     d="M 228.92812,73.878425 V 52.467714"
     clip-path="url(#pd3b9c5032d)"
     style="fill:none;stroke:#000000;stroke-width:1.5"
     id="path64" />
  <path
     d="M 284.72812,102.0506 V 81.436296"
     clip-path="url(#pd3b9c5032d)"
     style="fill:none;stroke:#000000;stroke-width:1.5"
     id="path65" />
  <path
     d="M 75.478125,43.066195 V 28.140813"
     clip-path="url(#pd3b9c5032d)"
     style="fill:none;stroke:#000000;stroke-width:1.5"
     id="path66" />
  <path
     d="M 131.27812,34.561672 V 24.369038"
     clip-path="url(#pd3b9c5032d)"
     style="fill:none;stroke:#000000;stroke-width:1.5"
     id="path67" />
  <path
     d="M 187.07812,39.588656 V 27.13142"
     clip-path="url(#pd3b9c5032d)"
     style="fill:none;stroke:#000000;stroke-width:1.5"
     id="path68" />
  <path
     d="M 242.87812,36.824605 V 25.46006"
     clip-path="url(#pd3b9c5032d)"
     style="fill:none;stroke:#000000;stroke-width:1.5"
     id="path69" />
  <path
     d="M 298.67813,61.788548 V 43.890464"
     clip-path="url(#pd3b9c5032d)"
     style="fill:none;stroke:#000000;stroke-width:1.5"
     id="path70" />
  <path
     d="M 40.603125,149.59922 V 10.999219"
     style="fill:none;stroke:#000000;stroke-width:0.8;stroke-linecap:square;stroke-linejoin:miter"
     id="path71" />
  <path
     d="M 319.60312,149.59922 V 10.999219"
     style="fill:none;stroke:#000000;stroke-width:0.8;stroke-linecap:square;stroke-linejoin:miter"
     id="path72" />
  <path
     d="M 40.603125,149.59922 H 319.60312"
     style="fill:none;stroke:#000000;stroke-width:0.8;stroke-linecap:square;stroke-linejoin:miter"
     id="path73" />
  <path
     d="M 40.603125,10.999219 H 319.60312"
     style="fill:none;stroke:#000000;stroke-width:0.8;stroke-linecap:square;stroke-linejoin:miter"
     id="path74" />
  <g
     id="patch_17"
     transform="matrix(1.5229809,0,0,0.98718621,-105.13353,2.2721314)">
    <path
       d="m 129.75312,186.16844 h 100.7 q 2,0 2,-2 V 170.47 q 0,-2 -2,-2 h -100.7 q -2,0 -2,2 v 13.69844 q 0,2 2,2 z"
       style="fill:#ffffff;stroke:#cccccc;stroke-linejoin:miter"
       id="path75" />
  </g>
  <g
     id="patch_18"
     transform="translate(-37.5)">
    <path
       d="m 131.75312,180.06844 h 20 v -7 h -20 z"
       style="fill:#1f77b4"
       id="path76" />
  </g>
  <g
     id="patch_19"
     transform="translate(-15)">
    <path
       d="m 192.55312,180.06844 h 20 v -7 h -20 z"
       style="fill:#ff7f0e"
       id="path77" />
  </g>
  <defs
     id="defs78">
    <clipPath
       id="pd3b9c5032d">
      <rect
         x="40.603125"
         y="10.999219"
         width="279"
         height="138.6"
         id="rect78" />
    </clipPath>
  </defs>
  <text
     xml:space="preserve"
     style="font-weight:100;font-size:9px;font-family:'Noto Sans';-inkscape-font-specification:'Noto Sans Thin';fill:#1a1a1a;stroke-width:2.73543"
     x="118.19924"
     y="179.84526"
     id="text78"><tspan
       sodipodi:role="line"
       id="tspan78"
       style="font-size:9px;fill:#1a1a1a;stroke-width:2.73543"
       x="118.19924"
       y="179.84526">First chance</tspan></text>
  <text
     xml:space="preserve"
     style="font-weight:100;font-size:9px;font-family:'Noto Sans';-inkscape-font-specification:'Noto Sans Thin';fill:#1a1a1a;stroke-width:2.73543;stroke-linecap:butt;stroke-linejoin:round"
     x="201.07758"
     y="179.84526"
     id="text78-6"><tspan
       sodipodi:role="line"
       id="tspan78-7"
       style="font-size:9px;fill:#1a1a1a;stroke-width:2.73543"
       x="201.07758"
       y="179.84526">Final score</tspan></text>
</svg>
