<?xml version="1.0" encoding="utf-8" standalone="no"?>
<!DOCTYPE svg PUBLIC "-//W3C//DTD SVG 1.1//EN"
  "http://www.w3.org/Graphics/SVG/1.1/DTD/svg11.dtd">
<svg xmlns:xlink="http://www.w3.org/1999/xlink" width="320.440625pt" height="196.489063pt" viewBox="0 0 320.440625 196.489063" xmlns="http://www.w3.org/2000/svg" version="1.1">
 <metadata>
  <rdf:RDF xmlns:dc="http://purl.org/dc/elements/1.1/" xmlns:cc="http://creativecommons.org/ns#" xmlns:rdf="http://www.w3.org/1999/02/22-rdf-syntax-ns#">
   <cc:Work>
    <dc:type rdf:resource="http://purl.org/dc/dcmitype/StillImage"/>
    <dc:date>2023-10-04T11:49:56.671882</dc:date>
    <dc:format>image/svg+xml</dc:format>
    <dc:creator>
     <cc:Agent>
      <dc:title>Matplotlib v3.7.2, https://matplotlib.org/</dc:title>
     </cc:Agent>
    </dc:creator>
   </cc:Work>
  </rdf:RDF>
 </metadata>
 <defs>
  <style type="text/css">*{stroke-linejoin: round; stroke-linecap: butt}</style>
 </defs>
 <g id="figure_1">
  <g id="patch_1">
   <path d="M 0 196.489063 
L 320.440625 196.489063 
L 320.440625 0 
L 0 0 
z
" style="fill: #ffffff"/>
  </g>
  <g id="axes_1">
   <g id="patch_2">
    <path d="M 34.240625 145.8 
L 313.240625 145.8 
L 313.240625 7.2 
L 34.240625 7.2 
z
" style="fill: #ffffff"/>
   </g>
   <g id="patch_3">
    <path d="M 48.190625 145.8 
L 57.490625 145.8 
L 57.490625 41.848114 
L 48.190625 41.848114 
z
" clip-path="url(#pe88816141e)" style="fill: #1f77b4"/>
   </g>
   <g id="patch_4">
    <path d="M 103.990625 145.8 
L 113.290625 145.8 
L 113.290625 63.463369 
L 103.990625 63.463369 
z
" clip-path="url(#pe88816141e)" style="fill: #1f77b4"/>
   </g>
   <g id="patch_5">
    <path d="M 159.790625 145.8 
L 169.090625 145.8 
L 169.090625 126.371999 
L 159.790625 126.371999 
z
" clip-path="url(#pe88816141e)" style="fill: #1f77b4"/>
   </g>
   <g id="patch_6">
    <path d="M 215.590625 145.8 
L 224.890625 145.8 
L 224.890625 103.187779 
L 215.590625 103.187779 
z
" clip-path="url(#pe88816141e)" style="fill: #1f77b4"/>
   </g>
   <g id="patch_7">
    <path d="M 271.390625 145.8 
L 280.690625 145.8 
L 280.690625 118.512828 
L 271.390625 118.512828 
z
" clip-path="url(#pe88816141e)" style="fill: #1f77b4"/>
   </g>
   <g id="patch_8">
    <path d="M 57.490625 145.8 
L 66.790625 145.8 
L 66.790625 93.48146 
L 57.490625 93.48146 
z
" clip-path="url(#pe88816141e)" style="fill: #ff7f0e"/>
   </g>
   <g id="patch_9">
    <path d="M 113.290625 145.8 
L 122.590625 145.8 
L 122.590625 110.566647 
L 113.290625 110.566647 
z
" clip-path="url(#pe88816141e)" style="fill: #ff7f0e"/>
   </g>
   <g id="patch_10">
    <path d="M 169.090625 145.8 
L 178.390625 145.8 
L 178.390625 145.708011 
L 169.090625 145.708011 
z
" clip-path="url(#pe88816141e)" style="fill: #ff7f0e"/>
   </g>
   <g id="patch_11">
    <path d="M 224.890625 145.8 
L 234.190625 145.8 
L 234.190625 94.936389 
L 224.890625 94.936389 
z
" clip-path="url(#pe88816141e)" style="fill: #ff7f0e"/>
   </g>
   <g id="patch_12">
    <path d="M 280.690625 145.8 
L 289.990625 145.8 
L 289.990625 139.68005 
L 280.690625 139.68005 
z
" clip-path="url(#pe88816141e)" style="fill: #ff7f0e"/>
   </g>
   <g id="patch_13">
    <path d="M 66.790625 145.8 
L 76.090625 145.8 
L 76.090625 80.761711 
L 66.790625 80.761711 
z
" clip-path="url(#pe88816141e)" style="fill: #2ca02c"/>
   </g>
   <g id="patch_14">
    <path d="M 122.590625 145.8 
L 131.890625 145.8 
L 131.890625 73.412037 
L 122.590625 73.412037 
z
" clip-path="url(#pe88816141e)" style="fill: #2ca02c"/>
   </g>
   <g id="patch_15">
    <path d="M 178.390625 145.8 
L 187.690625 145.8 
L 187.690625 133.288926 
L 178.390625 133.288926 
z
" clip-path="url(#pe88816141e)" style="fill: #2ca02c"/>
   </g>
   <g id="patch_16">
    <path d="M 234.190625 145.8 
L 243.490625 145.8 
L 243.490625 83.240505 
L 234.190625 83.240505 
z
" clip-path="url(#pe88816141e)" style="fill: #2ca02c"/>
   </g>
   <g id="patch_17">
    <path d="M 289.990625 145.8 
L 299.290625 145.8 
L 299.290625 39.931895 
L 289.990625 39.931895 
z
" clip-path="url(#pe88816141e)" style="fill: #2ca02c"/>
   </g>
   <g id="matplotlib.axis_1">
    <g id="xtick_1">
     <g id="line2d_1">
      <defs>
       <path id="m846d10850a" d="M 0 0 
L 0 3.5 
" style="stroke: #000000; stroke-width: 0.8"/>
      </defs>
      <g>
       <use xlink:href="#m846d10850a" x="62.140625" y="145.8" style="stroke: #000000; stroke-width: 0.8"/>
      </g>
     </g>
     <g id="text_1">
      <!-- Quiz 1 -->
      <g transform="translate(46.252344 160.398438) scale(0.1 -0.1)">
       <defs>
        <path id="DejaVuSans-51" d="M 2522 4238 
Q 1834 4238 1429 3725 
Q 1025 3213 1025 2328 
Q 1025 1447 1429 934 
Q 1834 422 2522 422 
Q 3209 422 3611 934 
Q 4013 1447 4013 2328 
Q 4013 3213 3611 3725 
Q 3209 4238 2522 4238 
z
M 3406 84 
L 4238 -825 
L 3475 -825 
L 2784 -78 
Q 2681 -84 2626 -87 
Q 2572 -91 2522 -91 
Q 1538 -91 948 567 
Q 359 1225 359 2328 
Q 359 3434 948 4092 
Q 1538 4750 2522 4750 
Q 3503 4750 4090 4092 
Q 4678 3434 4678 2328 
Q 4678 1516 4351 937 
Q 4025 359 3406 84 
z
" transform="scale(0.015625)"/>
        <path id="DejaVuSans-75" d="M 544 1381 
L 544 3500 
L 1119 3500 
L 1119 1403 
Q 1119 906 1312 657 
Q 1506 409 1894 409 
Q 2359 409 2629 706 
Q 2900 1003 2900 1516 
L 2900 3500 
L 3475 3500 
L 3475 0 
L 2900 0 
L 2900 538 
Q 2691 219 2414 64 
Q 2138 -91 1772 -91 
Q 1169 -91 856 284 
Q 544 659 544 1381 
z
M 1991 3584 
L 1991 3584 
z
" transform="scale(0.015625)"/>
        <path id="DejaVuSans-69" d="M 603 3500 
L 1178 3500 
L 1178 0 
L 603 0 
L 603 3500 
z
M 603 4863 
L 1178 4863 
L 1178 4134 
L 603 4134 
L 603 4863 
z
" transform="scale(0.015625)"/>
        <path id="DejaVuSans-7a" d="M 353 3500 
L 3084 3500 
L 3084 2975 
L 922 459 
L 3084 459 
L 3084 0 
L 275 0 
L 275 525 
L 2438 3041 
L 353 3041 
L 353 3500 
z
" transform="scale(0.015625)"/>
        <path id="DejaVuSans-20" transform="scale(0.015625)"/>
        <path id="DejaVuSans-31" d="M 794 531 
L 1825 531 
L 1825 4091 
L 703 3866 
L 703 4441 
L 1819 4666 
L 2450 4666 
L 2450 531 
L 3481 531 
L 3481 0 
L 794 0 
L 794 531 
z
" transform="scale(0.015625)"/>
       </defs>
       <use xlink:href="#DejaVuSans-51"/>
       <use xlink:href="#DejaVuSans-75" x="78.710938"/>
       <use xlink:href="#DejaVuSans-69" x="142.089844"/>
       <use xlink:href="#DejaVuSans-7a" x="169.873047"/>
       <use xlink:href="#DejaVuSans-20" x="222.363281"/>
       <use xlink:href="#DejaVuSans-31" x="254.150391"/>
      </g>
     </g>
    </g>
    <g id="xtick_2">
     <g id="line2d_2">
      <g>
       <use xlink:href="#m846d10850a" x="117.940625" y="145.8" style="stroke: #000000; stroke-width: 0.8"/>
      </g>
     </g>
     <g id="text_2">
      <!-- Quiz 2 -->
      <g transform="translate(102.052344 160.398438) scale(0.1 -0.1)">
       <defs>
        <path id="DejaVuSans-32" d="M 1228 531 
L 3431 531 
L 3431 0 
L 469 0 
L 469 531 
Q 828 903 1448 1529 
Q 2069 2156 2228 2338 
Q 2531 2678 2651 2914 
Q 2772 3150 2772 3378 
Q 2772 3750 2511 3984 
Q 2250 4219 1831 4219 
Q 1534 4219 1204 4116 
Q 875 4013 500 3803 
L 500 4441 
Q 881 4594 1212 4672 
Q 1544 4750 1819 4750 
Q 2544 4750 2975 4387 
Q 3406 4025 3406 3419 
Q 3406 3131 3298 2873 
Q 3191 2616 2906 2266 
Q 2828 2175 2409 1742 
Q 1991 1309 1228 531 
z
" transform="scale(0.015625)"/>
       </defs>
       <use xlink:href="#DejaVuSans-51"/>
       <use xlink:href="#DejaVuSans-75" x="78.710938"/>
       <use xlink:href="#DejaVuSans-69" x="142.089844"/>
       <use xlink:href="#DejaVuSans-7a" x="169.873047"/>
       <use xlink:href="#DejaVuSans-20" x="222.363281"/>
       <use xlink:href="#DejaVuSans-32" x="254.150391"/>
      </g>
     </g>
    </g>
    <g id="xtick_3">
     <g id="line2d_3">
      <g>
       <use xlink:href="#m846d10850a" x="173.740625" y="145.8" style="stroke: #000000; stroke-width: 0.8"/>
      </g>
     </g>
     <g id="text_3">
      <!-- Quiz 3 -->
      <g transform="translate(157.852344 160.398438) scale(0.1 -0.1)">
       <defs>
        <path id="DejaVuSans-33" d="M 2597 2516 
Q 3050 2419 3304 2112 
Q 3559 1806 3559 1356 
Q 3559 666 3084 287 
Q 2609 -91 1734 -91 
Q 1441 -91 1130 -33 
Q 819 25 488 141 
L 488 750 
Q 750 597 1062 519 
Q 1375 441 1716 441 
Q 2309 441 2620 675 
Q 2931 909 2931 1356 
Q 2931 1769 2642 2001 
Q 2353 2234 1838 2234 
L 1294 2234 
L 1294 2753 
L 1863 2753 
Q 2328 2753 2575 2939 
Q 2822 3125 2822 3475 
Q 2822 3834 2567 4026 
Q 2313 4219 1838 4219 
Q 1578 4219 1281 4162 
Q 984 4106 628 3988 
L 628 4550 
Q 988 4650 1302 4700 
Q 1616 4750 1894 4750 
Q 2613 4750 3031 4423 
Q 3450 4097 3450 3541 
Q 3450 3153 3228 2886 
Q 3006 2619 2597 2516 
z
" transform="scale(0.015625)"/>
       </defs>
       <use xlink:href="#DejaVuSans-51"/>
       <use xlink:href="#DejaVuSans-75" x="78.710938"/>
       <use xlink:href="#DejaVuSans-69" x="142.089844"/>
       <use xlink:href="#DejaVuSans-7a" x="169.873047"/>
       <use xlink:href="#DejaVuSans-20" x="222.363281"/>
       <use xlink:href="#DejaVuSans-33" x="254.150391"/>
      </g>
     </g>
    </g>
    <g id="xtick_4">
     <g id="line2d_4">
      <g>
       <use xlink:href="#m846d10850a" x="229.540625" y="145.8" style="stroke: #000000; stroke-width: 0.8"/>
      </g>
     </g>
     <g id="text_4">
      <!-- Quiz 4 -->
      <g transform="translate(213.652344 160.398438) scale(0.1 -0.1)">
       <defs>
        <path id="DejaVuSans-34" d="M 2419 4116 
L 825 1625 
L 2419 1625 
L 2419 4116 
z
M 2253 4666 
L 3047 4666 
L 3047 1625 
L 3713 1625 
L 3713 1100 
L 3047 1100 
L 3047 0 
L 2419 0 
L 2419 1100 
L 313 1100 
L 313 1709 
L 2253 4666 
z
" transform="scale(0.015625)"/>
       </defs>
       <use xlink:href="#DejaVuSans-51"/>
       <use xlink:href="#DejaVuSans-75" x="78.710938"/>
       <use xlink:href="#DejaVuSans-69" x="142.089844"/>
       <use xlink:href="#DejaVuSans-7a" x="169.873047"/>
       <use xlink:href="#DejaVuSans-20" x="222.363281"/>
       <use xlink:href="#DejaVuSans-34" x="254.150391"/>
      </g>
     </g>
    </g>
    <g id="xtick_5">
     <g id="line2d_5">
      <g>
       <use xlink:href="#m846d10850a" x="285.340625" y="145.8" style="stroke: #000000; stroke-width: 0.8"/>
      </g>
     </g>
     <g id="text_5">
      <!-- Quiz 5 -->
      <g transform="translate(269.452344 160.398438) scale(0.1 -0.1)">
       <defs>
        <path id="DejaVuSans-35" d="M 691 4666 
L 3169 4666 
L 3169 4134 
L 1269 4134 
L 1269 2991 
Q 1406 3038 1543 3061 
Q 1681 3084 1819 3084 
Q 2600 3084 3056 2656 
Q 3513 2228 3513 1497 
Q 3513 744 3044 326 
Q 2575 -91 1722 -91 
Q 1428 -91 1123 -41 
Q 819 9 494 109 
L 494 744 
Q 775 591 1075 516 
Q 1375 441 1709 441 
Q 2250 441 2565 725 
Q 2881 1009 2881 1497 
Q 2881 1984 2565 2268 
Q 2250 2553 1709 2553 
Q 1456 2553 1204 2497 
Q 953 2441 691 2322 
L 691 4666 
z
" transform="scale(0.015625)"/>
       </defs>
       <use xlink:href="#DejaVuSans-51"/>
       <use xlink:href="#DejaVuSans-75" x="78.710938"/>
       <use xlink:href="#DejaVuSans-69" x="142.089844"/>
       <use xlink:href="#DejaVuSans-7a" x="169.873047"/>
       <use xlink:href="#DejaVuSans-20" x="222.363281"/>
       <use xlink:href="#DejaVuSans-35" x="254.150391"/>
      </g>
     </g>
    </g>
   </g>
   <g id="matplotlib.axis_2">
    <g id="ytick_1">
     <g id="line2d_6">
      <defs>
       <path id="m11c4b04806" d="M 0 0 
L -3.5 0 
" style="stroke: #000000; stroke-width: 0.8"/>
      </defs>
      <g>
       <use xlink:href="#m11c4b04806" x="34.240625" y="145.8" style="stroke: #000000; stroke-width: 0.8"/>
      </g>
     </g>
     <g id="text_6">
      <!-- 0 -->
      <g transform="translate(20.878125 149.599219) scale(0.1 -0.1)">
       <defs>
        <path id="DejaVuSans-30" d="M 2034 4250 
Q 1547 4250 1301 3770 
Q 1056 3291 1056 2328 
Q 1056 1369 1301 889 
Q 1547 409 2034 409 
Q 2525 409 2770 889 
Q 3016 1369 3016 2328 
Q 3016 3291 2770 3770 
Q 2525 4250 2034 4250 
z
M 2034 4750 
Q 2819 4750 3233 4129 
Q 3647 3509 3647 2328 
Q 3647 1150 3233 529 
Q 2819 -91 2034 -91 
Q 1250 -91 836 529 
Q 422 1150 422 2328 
Q 422 3509 836 4129 
Q 1250 4750 2034 4750 
z
" transform="scale(0.015625)"/>
       </defs>
       <use xlink:href="#DejaVuSans-30"/>
      </g>
     </g>
    </g>
    <g id="ytick_2">
     <g id="line2d_7">
      <g>
       <use xlink:href="#m11c4b04806" x="34.240625" y="116.255413" style="stroke: #000000; stroke-width: 0.8"/>
      </g>
     </g>
     <g id="text_7">
      <!-- 1 -->
      <g transform="translate(20.878125 120.054631) scale(0.1 -0.1)">
       <use xlink:href="#DejaVuSans-31"/>
      </g>
     </g>
    </g>
    <g id="ytick_3">
     <g id="line2d_8">
      <g>
       <use xlink:href="#m11c4b04806" x="34.240625" y="86.710825" style="stroke: #000000; stroke-width: 0.8"/>
      </g>
     </g>
     <g id="text_8">
      <!-- 2 -->
      <g transform="translate(20.878125 90.510044) scale(0.1 -0.1)">
       <use xlink:href="#DejaVuSans-32"/>
      </g>
     </g>
    </g>
    <g id="ytick_4">
     <g id="line2d_9">
      <g>
       <use xlink:href="#m11c4b04806" x="34.240625" y="57.166238" style="stroke: #000000; stroke-width: 0.8"/>
      </g>
     </g>
     <g id="text_9">
      <!-- 3 -->
      <g transform="translate(20.878125 60.965456) scale(0.1 -0.1)">
       <use xlink:href="#DejaVuSans-33"/>
      </g>
     </g>
    </g>
    <g id="ytick_5">
     <g id="line2d_10">
      <g>
       <use xlink:href="#m11c4b04806" x="34.240625" y="27.62165" style="stroke: #000000; stroke-width: 0.8"/>
      </g>
     </g>
     <g id="text_10">
      <!-- 4 -->
      <g transform="translate(20.878125 31.420869) scale(0.1 -0.1)">
       <use xlink:href="#DejaVuSans-34"/>
      </g>
     </g>
    </g>
    <g id="text_11">
     <!-- $Q$ - $g1$ -->
     <g transform="translate(14.778125 91.8) rotate(-90) scale(0.1 -0.1)">
      <defs>
       <path id="DejaVuSans-Oblique-51" d="M 2309 -84 
Q 2275 -88 2237 -89 
Q 2200 -91 2125 -91 
Q 1250 -91 756 411 
Q 263 913 263 1797 
Q 263 2319 452 2844 
Q 641 3369 978 3788 
Q 1369 4269 1858 4509 
Q 2347 4750 2938 4750 
Q 3794 4750 4287 4245 
Q 4781 3741 4781 2869 
Q 4781 1928 4265 1147 
Q 3750 366 2919 44 
L 3553 -825 
L 2847 -825 
L 2309 -84 
z
M 2919 4238 
Q 2400 4238 2003 3986 
Q 1606 3734 1313 3219 
Q 1125 2891 1026 2522 
Q 928 2153 928 1778 
Q 928 1128 1239 775 
Q 1550 422 2119 422 
Q 2631 422 3032 676 
Q 3434 931 3719 1434 
Q 3909 1772 4009 2142 
Q 4109 2513 4109 2881 
Q 4109 3528 3796 3883 
Q 3484 4238 2919 4238 
z
" transform="scale(0.015625)"/>
       <path id="DejaVuSans-2d" d="M 313 2009 
L 1997 2009 
L 1997 1497 
L 313 1497 
L 313 2009 
z
" transform="scale(0.015625)"/>
       <path id="DejaVuSans-Oblique-67" d="M 3816 3500 
L 3219 434 
Q 3047 -456 2561 -893 
Q 2075 -1331 1253 -1331 
Q 950 -1331 690 -1286 
Q 431 -1241 206 -1147 
L 313 -588 
Q 525 -725 762 -790 
Q 1000 -856 1269 -856 
Q 1816 -856 2167 -557 
Q 2519 -259 2631 300 
L 2681 563 
Q 2441 288 2122 144 
Q 1803 0 1434 0 
Q 903 0 598 351 
Q 294 703 294 1319 
Q 294 1803 478 2267 
Q 663 2731 997 3091 
Q 1219 3328 1514 3456 
Q 1809 3584 2131 3584 
Q 2484 3584 2746 3420 
Q 3009 3256 3138 2956 
L 3238 3500 
L 3816 3500 
z
M 2950 2216 
Q 2950 2641 2750 2872 
Q 2550 3103 2181 3103 
Q 1953 3103 1747 3012 
Q 1541 2922 1394 2759 
Q 1156 2491 1023 2127 
Q 891 1763 891 1375 
Q 891 944 1092 712 
Q 1294 481 1672 481 
Q 2219 481 2584 976 
Q 2950 1472 2950 2216 
z
" transform="scale(0.015625)"/>
      </defs>
      <use xlink:href="#DejaVuSans-Oblique-51" transform="translate(0 0.78125)"/>
      <use xlink:href="#DejaVuSans-20" transform="translate(78.710938 0.78125)"/>
      <use xlink:href="#DejaVuSans-2d" transform="translate(110.498047 0.78125)"/>
      <use xlink:href="#DejaVuSans-20" transform="translate(146.582031 0.78125)"/>
      <use xlink:href="#DejaVuSans-Oblique-67" transform="translate(178.369141 0.78125)"/>
      <use xlink:href="#DejaVuSans-31" transform="translate(241.845703 0.78125)"/>
     </g>
    </g>
   </g>
   <g id="LineCollection_1">
    <path d="M 52.840625 69.709212 
L 52.840625 13.987016 
" clip-path="url(#pe88816141e)" style="fill: none; stroke: #000000; stroke-width: 1.5"/>
    <path d="M 108.640625 86.526195 
L 108.640625 40.400542 
" clip-path="url(#pe88816141e)" style="fill: none; stroke: #000000; stroke-width: 1.5"/>
    <path d="M 164.440625 135.01179 
L 164.440625 117.732207 
" clip-path="url(#pe88816141e)" style="fill: none; stroke: #000000; stroke-width: 1.5"/>
    <path d="M 220.240625 118.251116 
L 220.240625 88.124443 
" clip-path="url(#pe88816141e)" style="fill: none; stroke: #000000; stroke-width: 1.5"/>
    <path d="M 276.040625 127.796007 
L 276.040625 109.229649 
" clip-path="url(#pe88816141e)" style="fill: none; stroke: #000000; stroke-width: 1.5"/>
   </g>
   <g id="LineCollection_2">
    <path d="M 62.140625 128.462185 
L 62.140625 58.500734 
" clip-path="url(#pe88816141e)" style="fill: none; stroke: #000000; stroke-width: 1.5"/>
    <path d="M 117.940625 143.655246 
L 117.940625 77.478047 
" clip-path="url(#pe88816141e)" style="fill: none; stroke: #000000; stroke-width: 1.5"/>
    <path d="M 173.740625 145.8 
L 173.740625 145.616023 
" clip-path="url(#pe88816141e)" style="fill: none; stroke: #000000; stroke-width: 1.5"/>
    <path d="M 229.540625 125.99165 
L 229.540625 63.881129 
" clip-path="url(#pe88816141e)" style="fill: none; stroke: #000000; stroke-width: 1.5"/>
    <path d="M 285.340625 144.419603 
L 285.340625 134.940496 
" clip-path="url(#pe88816141e)" style="fill: none; stroke: #000000; stroke-width: 1.5"/>
   </g>
   <g id="LineCollection_3">
    <path d="M 71.440625 106.019263 
L 71.440625 55.504158 
" clip-path="url(#pe88816141e)" style="fill: none; stroke: #000000; stroke-width: 1.5"/>
    <path d="M 127.240625 92.883339 
L 127.240625 53.940736 
" clip-path="url(#pe88816141e)" style="fill: none; stroke: #000000; stroke-width: 1.5"/>
    <path d="M 183.040625 138.71961 
L 183.040625 127.858242 
" clip-path="url(#pe88816141e)" style="fill: none; stroke: #000000; stroke-width: 1.5"/>
    <path d="M 238.840625 108.728632 
L 238.840625 57.752377 
" clip-path="url(#pe88816141e)" style="fill: none; stroke: #000000; stroke-width: 1.5"/>
    <path d="M 294.640625 66.06379 
L 294.640625 13.8 
" clip-path="url(#pe88816141e)" style="fill: none; stroke: #000000; stroke-width: 1.5"/>
   </g>
   <g id="patch_18">
    <path d="M 34.240625 145.8 
L 34.240625 7.2 
" style="fill: none; stroke: #000000; stroke-width: 0.8; stroke-linejoin: miter; stroke-linecap: square"/>
   </g>
   <g id="patch_19">
    <path d="M 313.240625 145.8 
L 313.240625 7.2 
" style="fill: none; stroke: #000000; stroke-width: 0.8; stroke-linejoin: miter; stroke-linecap: square"/>
   </g>
   <g id="patch_20">
    <path d="M 34.240625 145.8 
L 313.240625 145.8 
" style="fill: none; stroke: #000000; stroke-width: 0.8; stroke-linejoin: miter; stroke-linecap: square"/>
   </g>
   <g id="patch_21">
    <path d="M 34.240625 7.2 
L 313.240625 7.2 
" style="fill: none; stroke: #000000; stroke-width: 0.8; stroke-linejoin: miter; stroke-linecap: square"/>
   </g>
   <g id="legend_1">
    <g id="patch_22">
     <path d="M 75.752344 189.289063 
L 271.728906 189.289063 
Q 273.728906 189.289063 273.728906 187.289063 
L 273.728906 173.610938 
Q 273.728906 171.610938 271.728906 171.610938 
L 75.752344 171.610938 
Q 73.752344 171.610938 73.752344 173.610938 
L 73.752344 187.289063 
Q 73.752344 189.289063 75.752344 189.289063 
z
" style="fill: #ffffff; stroke: #cccccc; stroke-linejoin: miter"/>
    </g>
    <g id="patch_23">
     <path d="M 77.752344 183.209375 
L 97.752344 183.209375 
L 97.752344 176.209375 
L 77.752344 176.209375 
z
" style="fill: #1f77b4"/>
    </g>
    <g id="text_12">
     <!-- ALL -->
     <g transform="translate(105.752344 183.209375) scale(0.1 -0.1)">
      <defs>
       <path id="DejaVuSans-41" d="M 2188 4044 
L 1331 1722 
L 3047 1722 
L 2188 4044 
z
M 1831 4666 
L 2547 4666 
L 4325 0 
L 3669 0 
L 3244 1197 
L 1141 1197 
L 716 0 
L 50 0 
L 1831 4666 
z
" transform="scale(0.015625)"/>
       <path id="DejaVuSans-4c" d="M 628 4666 
L 1259 4666 
L 1259 531 
L 3531 531 
L 3531 0 
L 628 0 
L 628 4666 
z
" transform="scale(0.015625)"/>
      </defs>
      <use xlink:href="#DejaVuSans-41"/>
      <use xlink:href="#DejaVuSans-4c" x="68.408203"/>
      <use xlink:href="#DejaVuSans-4c" x="124.121094"/>
     </g>
    </g>
    <g id="patch_24">
     <path d="M 143.736719 183.209375 
L 163.736719 183.209375 
L 163.736719 176.209375 
L 143.736719 176.209375 
z
" style="fill: #ff7f0e"/>
    </g>
    <g id="text_13">
     <!-- FIRST -->
     <g transform="translate(171.736719 183.209375) scale(0.1 -0.1)">
      <defs>
       <path id="DejaVuSans-46" d="M 628 4666 
L 3309 4666 
L 3309 4134 
L 1259 4134 
L 1259 2759 
L 3109 2759 
L 3109 2228 
L 1259 2228 
L 1259 0 
L 628 0 
L 628 4666 
z
" transform="scale(0.015625)"/>
       <path id="DejaVuSans-49" d="M 628 4666 
L 1259 4666 
L 1259 0 
L 628 0 
L 628 4666 
z
" transform="scale(0.015625)"/>
       <path id="DejaVuSans-52" d="M 2841 2188 
Q 3044 2119 3236 1894 
Q 3428 1669 3622 1275 
L 4263 0 
L 3584 0 
L 2988 1197 
Q 2756 1666 2539 1819 
Q 2322 1972 1947 1972 
L 1259 1972 
L 1259 0 
L 628 0 
L 628 4666 
L 2053 4666 
Q 2853 4666 3247 4331 
Q 3641 3997 3641 3322 
Q 3641 2881 3436 2590 
Q 3231 2300 2841 2188 
z
M 1259 4147 
L 1259 2491 
L 2053 2491 
Q 2509 2491 2742 2702 
Q 2975 2913 2975 3322 
Q 2975 3731 2742 3939 
Q 2509 4147 2053 4147 
L 1259 4147 
z
" transform="scale(0.015625)"/>
       <path id="DejaVuSans-53" d="M 3425 4513 
L 3425 3897 
Q 3066 4069 2747 4153 
Q 2428 4238 2131 4238 
Q 1616 4238 1336 4038 
Q 1056 3838 1056 3469 
Q 1056 3159 1242 3001 
Q 1428 2844 1947 2747 
L 2328 2669 
Q 3034 2534 3370 2195 
Q 3706 1856 3706 1288 
Q 3706 609 3251 259 
Q 2797 -91 1919 -91 
Q 1588 -91 1214 -16 
Q 841 59 441 206 
L 441 856 
Q 825 641 1194 531 
Q 1563 422 1919 422 
Q 2459 422 2753 634 
Q 3047 847 3047 1241 
Q 3047 1584 2836 1778 
Q 2625 1972 2144 2069 
L 1759 2144 
Q 1053 2284 737 2584 
Q 422 2884 422 3419 
Q 422 4038 858 4394 
Q 1294 4750 2059 4750 
Q 2388 4750 2728 4690 
Q 3069 4631 3425 4513 
z
" transform="scale(0.015625)"/>
       <path id="DejaVuSans-54" d="M -19 4666 
L 3928 4666 
L 3928 4134 
L 2272 4134 
L 2272 0 
L 1638 0 
L 1638 4134 
L -19 4134 
L -19 4666 
z
" transform="scale(0.015625)"/>
      </defs>
      <use xlink:href="#DejaVuSans-46"/>
      <use xlink:href="#DejaVuSans-49" x="57.519531"/>
      <use xlink:href="#DejaVuSans-52" x="87.011719"/>
      <use xlink:href="#DejaVuSans-53" x="156.494141"/>
      <use xlink:href="#DejaVuSans-54" x="219.970703"/>
     </g>
    </g>
    <g id="patch_25">
     <path d="M 219.842969 183.209375 
L 239.842969 183.209375 
L 239.842969 176.209375 
L 219.842969 176.209375 
z
" style="fill: #2ca02c"/>
    </g>
    <g id="text_14">
     <!-- SKIP -->
     <g transform="translate(247.842969 183.209375) scale(0.1 -0.1)">
      <defs>
       <path id="DejaVuSans-4b" d="M 628 4666 
L 1259 4666 
L 1259 2694 
L 3353 4666 
L 4166 4666 
L 1850 2491 
L 4331 0 
L 3500 0 
L 1259 2247 
L 1259 0 
L 628 0 
L 628 4666 
z
" transform="scale(0.015625)"/>
       <path id="DejaVuSans-50" d="M 1259 4147 
L 1259 2394 
L 2053 2394 
Q 2494 2394 2734 2622 
Q 2975 2850 2975 3272 
Q 2975 3691 2734 3919 
Q 2494 4147 2053 4147 
L 1259 4147 
z
M 628 4666 
L 2053 4666 
Q 2838 4666 3239 4311 
Q 3641 3956 3641 3272 
Q 3641 2581 3239 2228 
Q 2838 1875 2053 1875 
L 1259 1875 
L 1259 0 
L 628 0 
L 628 4666 
z
" transform="scale(0.015625)"/>
      </defs>
      <use xlink:href="#DejaVuSans-53"/>
      <use xlink:href="#DejaVuSans-4b" x="63.476562"/>
      <use xlink:href="#DejaVuSans-49" x="129.052734"/>
      <use xlink:href="#DejaVuSans-50" x="158.544922"/>
     </g>
    </g>
   </g>
  </g>
 </g>
 <defs>
  <clipPath id="pe88816141e">
   <rect x="34.240625" y="7.2" width="279" height="138.6"/>
  </clipPath>
 </defs>
</svg>
